/* XPM */
static char *bitcoin__[] = {
/* columns rows colors chars-per-pixel */
"64 64 30 1 ",
"  c #FFBC00",
". c #FFBD00",
"X c #FFBE00",
"o c #FFEAB1",
"O c #FFEAB2",
"+ c #FFEBB2",
"@ c #FFEAB3",
"# c #FFEBB3",
"$ c #FFEAB4",
"% c #FFEBB4",
"& c #FFEAB5",
"* c #FFEBB5",
"= c #FFEBB6",
"- c #FFEBB7",
"; c #FFECB5",
": c #FFECB6",
"> c #FFECB7",
", c #FFEBB8",
"< c #FFECB8",
"1 c #FFECB9",
"2 c #FFEDB9",
"3 c #FFECBA",
"4 c #FFEDBA",
"5 c #FFECBB",
"6 c #FFEDBB",
"7 c #FFEEBB",
"8 c #FFECBC",
"9 c #FFEDBC",
"0 c #FFEEBC",
"q c None",
/* pixels */
"qqqqqqqqqqqqqqqqqqqqqqqqqqqqqqqqqqqqqqqqqqqqqqqqqqqqqqqqqqqqqqqq",
"qqqqqqqqqqqqqqqqqqqqqqqqqqqqqqqqqqqqqqqqqqqqqqqqqqqqqqqqqqqqqqqq",
"qqqqqqqqqqqqqqqqqqqqqqqqqqqqqqqqqqqqqqqqqqqqqqqqqqqqqqqqqqqqqqqq",
"qqqqqqqqqqqqqqqqqqqqqqqqqqqqqqqq  .. qqqqqqqqqqqqqqqqqqqqqqqqqqq",
"qqqqqqqqqqqqqqqqqqqqqqqqqqqqqqqq         qqqqqqqqqqqqqqqqqqqqqqq",
"qqqqqqqqqqqqqqqqqqqqqqqqqqqqqqqq           .qqqqqqqqqqqqqqqqqqqq",
"qqqqqqqqqqqqqqqqqq. qqqqqqqqqqqq.....         qqqqqqqqqqqqqqqqqq",
"qqqqqqqqqqqqqqqq .  .qqqqqqqqqqqqqqqqqq..      qqqqqqqqqqqqqqqqq",
"qqqqqqqqqqqqqqq.    .qqqqqqqqqqqqqqqqqqqqq.     .qqqqqqqqqqqqqqq",
"qqqqqqqqqqqqqq.     qqqqqqqqqqqqqqqqqqqqqqqq      qqqqqqqqqqqqqq",
"qqqqqqqqqqqqq    .qqqqqqqqq<;@OOqqqqqqqqqqqqqq.    qqqqqqqqqqqqq",
"qqqqqqqqqqqq    .qqqqqq9*OOOOOOOqqqqqqqqqqqqqqq.   .qqqqqqqqqqqq",
"qqqqqqqqqqqqX   qqqqq5@OOOOOOOOOqqqqqqqqqqqqqqqq.   .qqqqqqqqqqq",
"qqqqqqqqqqqqq qqqqqq%OOOOOO#<38qqqqqqqqqqqqqqqqqq     qqqqqqqqqq",
"qqqqqqqqqqqqqqqqqq5OOOOO@4qqqqqqqqqqqqqqqqqqqqqqqq     qqqqqqqqq",
"qqqqqqqqqqqqqqqqq<OOOO@0qqqqqqqqqqqqqqqqqqqqqqqqqqq.   .qqqqqqqq",
"qqqqqqqqqqqqqqqq=OOOO4qqqqqqqqqqqqqqqqqqqqqqqqqqqqqq.   qqqqqqqq",
"qqqqqqqqqqqqqqq,OOO#qqqqqqq..   OOO#2qqqqqqqqqq. qqqq.   qqqqqqq",
"qqqqqqqqqqqqqq5OOO#qqqqqq.      OOOOOO$qqqqqqq   .qqqq    qqqqqq",
"qqqqqqqqqqqqqqOOOoqqqqq.        OOOOOOOO=qqqqq    qqqq.   qqqqqq",
"qqqqqqqqqqqqq$OOOqqqqq     ..qqqqqq-OOOOO%qqqqq.  .qqqq   .qqqqq",
"qqqqqqqqqqqq0OOO4qqqq.   ..qqqqqqqqqq4@OOOOqqqqq   .qqq.   qqqqq",
"qqqqqqqqqqqq#OO#qqqq.    qqqqqqqqqqqqqq*OOO@qqqq    qqqq   qqqqq",
"qqqqqqqqqqq9OOO0qqq.    qqqqqqq4Xqqqqqqq<OOO:qqqq qqqqqq.   qqqq",
"qqqqqqqqqqq=OO%qqqq   .qqqqq:OOO   .qqqqq&OOOqqqqqqqqqqq.   qqqq",
"qqqqqqqqqqqOOO3qqq    qqqq5OOOOO    .qqqqq#OO%qqqqqqqqqqq   qqqq",
"qqqqqqqqqqqOOOqqqq   .qqq5OOOOO+.     qqqq3OOOqqqqqqqqqqq   qqqq",
"qqqqqqqqqq-OO@qqq   .qqqqOOOO,qqqq.    qqqqoOO1qqqqqqqqqq.   qqq",
"qqqqqqqqqq&OO-qqq.  .qqq-OOOqqqqqqq.    qqq-OO@qqqqqqqqqq.  .qqq",
"qqqqqqqqqq%OO1qqq   qqqqOOO-qqqqqqqq.   qqq8OOOqqqqqqqqqq.  .qqq",
"qqqqqqqqqqOOO7qqq   qqqqOOOqqqqqqqqqq   qqqqOOOqqqqqqqqqq.   qqq",
"qqqqqqqqqqOOOqqqq   qqqq***qqqqqqqqqq   qqqq***qqqqqqqqqq.   qqq",
"qqq+OO3qqq   qqqq   qqqqqqqqqqqqqqqqq   qqqqqqqqqqq   qqq.   qqq",
"qqq#OO1qqq.  .qqq   qqqqqqqqqqqqqqqqq   qqqqqqqqqqq   qqq.   qqq",
"qqq%OO<qqq   .qqq   qqqqqqqqqqqqqqqq.   qqqqqqqqqqq   qqq.  .qqq",
"qqq-OO$qqq.  .qqq.  .qqqqqqqqqqqqqq.    qqqqqqqqqqq   qqq.  .qqq",
"qqq4OO#qqq.   qqq   .qqqqqqqqqqqqq.    qqqqqqqqqqq.  .qqq.   qqq",
"qqqqOOOqqqq   qqqq   .qqqqqqqqqq.     qqqqqqqqqqqq    qqq   qqqq",
"qqqqOOO5qqq.   qqq    qqqqqqqqqq    .qqqqqqqqqqqqq   qqqq   qqqq",
"qqqq@OO>qqq.  .qqqq   .qqqqqqqqq   .qqqqqqqqqqqqq   .qqq.   qqqq",
"qqqq,OOoqqqq    qqq.    qqqqqqqqXqqqqqqqqqqqqqqqq   .qqq.   qqqq",
"qqqqqOOO9qqq    qqqq.    qqqqqqqqqqqqqqq qqqqqqq   .qqqq   qqqqq",
"qqqqq%OO%qqqq    qqqq.   ..qqqqqqqqqqq     qqqq    .qqq.   qqqqq",
"qqqqq7OOO6qqq.    qqqq     . qqqqqqqq.    .qqqq    qqqq   .qqqqq",
"qqqqqqOOOOqqqq.   Xqqqq.        qqqqqq   qqqqq    qqqq    qqqqqq",
"qqqqqq5OOO1qqqq    .qqqqq.      qqqqqq. qqqqq.   Xqqqq    qqqqqq",
"qqqqqqq@OOOqqqqq    .qqqqqq..   qqqqqqqqqqqq.   .qqqq.   qqqqqqq",
"qqqqqqqqOOO@qqqqq.    qqqqqqqqqqqqqqqqqqqq.     qqqq.   qqqqqqqq",
"qqqqqqqq4OOO*qqqqq     .qqqqqqqqqqqqqqqq..     qqqq.   .qqqqqqqq",
"qqqqqqqqq>OOO:qqqqq      ..qqqqqqqqqqq      .qqqqq     qqqqqqqqq",
"qqqqqqqqqq*OOO*qqqqqX.        . .. .       .qqqqq     qqqqqqqqqq",
"qqqqqqqqqqq@OOO#qqqqqqX                  .qqqqqq.   .qqqqqqqqqqq",
"qqqqqqqqqqqq#OOOoqqqqqqqq.            ..qqqqqqq.   .qqqqqqqqqqqq",
"qqqqqqqqqqqqq=OOOO:qqqqqqqqqX.  ... qqqqqqqqqq.    qqqqqqqqqqqqq",
"qqqqqqqqqqqqqq<OOOOO-qqqqqqqqqqqqqqqqqqqqqqq      qqqqqqqqqqqqqq",
"qqqqqqqqqqqqqqq3oOOOOo<qqqqqqqqqqqqqqqqqqq.     .qqqqqqqqqqqqqqq",
"qqqqqqqqqqqqqqqqq=OOOOOO@-0qqqqqqqqqqqq..      qqqqqqqqqqqqqqqqq",
"qqqqqqqqqqqqqqqqqqq=OOOOOOOOO+#%.....         qqqqqqqqqqqqqqqqqq",
"qqqqqqqqqqqqqqqqqqqqq-OOOOOOOOOO           .qqqqqqqqqqqqqqqqqqqq",
"qqqqqqqqqqqqqqqqqqqqqqqq<#OOOOOO         qqqqqqqqqqqqqqqqqqqqqqq",
"qqqqqqqqqqqqqqqqqqqqqqqqqqqq531,  .. qqqqqqqqqqqqqqqqqqqqqqqqqqq",
"qqqqqqqqqqqqqqqqqqqqqqqqqqqqqqqqqqqqqqqqqqqqqqqqqqqqqqqqqqqqqqqq",
"qqqqqqqqqqqqqqqqqqqqqqqqqqqqqqqqqqqqqqqqqqqqqqqqqqqqqqqqqqqqqqqq",
"qqqqqqqqqqqqqqqqqqqqqqqqqqqqqqqqqqqqqqqqqqqqqqqqqqqqqqqqqqqqqqqq"
};
