/* XPM */
static char *bitcoin___[] = {
/* columns rows colors chars-per-pixel */
"128 128 36 1 ",
"  c #FFBC00",
". c #FFBD00",
"X c #FFBE00",
"o c #FFE69F",
"O c #FFE7A6",
"+ c #FFEAB1",
"@ c #FFEAB2",
"# c #FFEBB2",
"$ c #FFEAB3",
"% c #FFEBB3",
"& c #FFEAB4",
"* c #FFEBB4",
"= c #FFEAB5",
"- c #FFEBB5",
"; c #FFEBB6",
": c #FFEBB7",
"> c #FFECB5",
", c #FFECB6",
"< c #FFECB7",
"1 c #FFEBB8",
"2 c #FFEBB9",
"3 c #FFEBBA",
"4 c #FFECB8",
"5 c #FFEDB8",
"6 c #FFECB9",
"7 c #FFEDB9",
"8 c #FFECBA",
"9 c #FFEDBA",
"0 c #FFECBB",
"q c #FFEDBB",
"w c #FFEEBB",
"e c #FFECBC",
"r c #FFEDBC",
"t c #FFEDBD",
"y c #FFEEBC",
"u c None",
/* pixels */
"uuuuuuuuuuuuuuuuuuuuuuuuuuuuuuuuuuuuuuuuuuuuuuuuuuuuuuuuuuuuuuuuuuuuuuuuuuuuuuuuuuuuuuuuuuuuuuuuuuuuuuuuuuuuuuuuuuuuuuuuuuuuuuuu",
"uuuuuuuuuuuuuuuuuuuuuuuuuuuuuuuuuuuuuuuuuuuuuuuuuuuuuuuuuuuuuuuuuuuuuuuuuuuuuuuuuuuuuuuuuuuuuuuuuuuuuuuuuuuuuuuuuuuuuuuuuuuuuuuu",
"uuuuuuuuuuuuuuuuuuuuuuuuuuuuuuuuuuuuuuuuuuuuuuuuuuuuuuuuuuuuuuuuuuuuuuuuuuuuuuuuuuuuuuuuuuuuuuuuuuuuuuuuuuuuuuuuuuuuuuuuuuuuuuuu",
"uuuuuuuuuuuuuuuuuuuuuuuuuuuuuuuuuuuuuuuuuuuuuuuuuuuuuuuuuuuuuuuuuuuuuuuuuuuuuuuuuuuuuuuuuuuuuuuuuuuuuuuuuuuuuuuuuuuuuuuuuuuuuuuu",
"uuuuuuuuuuuuuuuuuuuuuuuuuuuuuuuuuuuuuuuuuuuuuuuuuuuuuuuuuuuuuuuuuuuuuuuuuuuuuuuuuuuuuuuuuuuuuuuuuuuuuuuuuuuuuuuuuuuuuuuuuuuuuuuu",
"uuuuuuuuuuuuuuuuuuuuuuuuuuuuuuuuuuuuuuuuuuuuuuuuuuuuuuuuuuuuuuuuuuuuuuuuuuuuuuuuuuuuuuuuuuuuuuuuuuuuuuuuuuuuuuuuuuuuuuuuuuuuuuuu",
"uuuuuuuuuuuuuuuuuuuuuuuuuuuuuuuuuuuuuuuuuuuuuuuuuuuuuuuuuuuuuuuu  . . Xuuuuuuuuuuuuuuuuuuuuuuuuuuuuuuuuuuuuuuuuuuuuuuuuuuuuuuuuu",
"uuuuuuuuuuuuuuuuuuuuuuuuuuuuuuuuuuuuuuuuuuuuuuuuuuuuuuuuuuuuuuuu          ...uuuuuuuuuuuuuuuuuuuuuuuuuuuuuuuuuuuuuuuuuuuuuuuuuuu",
"uuuuuuuuuuuuuuuuuuuuuuuuuuuuuuuuuuuuuuuuuuuuuuuuuuuuuuuuuuuuuuuu               ..uuuuuuuuuuuuuuuuuuuuuuuuuuuuuuuuuuuuuuuuuuuuuuu",
"uuuuuuuuuuuuuuuuuuuuuuuuuuuuuuuuuuuuuuuuuuuuuuuuuuuuuuuuuuuuuuuu                  . uuuuuuuuuuuuuuuuuuuuuuuuuuuuuuuuuuuuuuuuuuuu",
"uuuuuuuuuuuuuuuuuuuuuuuuuuuuuuuuuuuuuuuuuuuuuuuuuuuuuuuuuuuuuuuu                      uuuuuuuuuuuuuuuuuuuuuuuuuuuuuuuuuuuuuuuuuu",
"uuuuuuuuuuuuuuuuuuuuuuuuuuuuuuuuuuuuuuu uuuuuuuuuuuuuuuuuuuuuuuu                        uuuuuuuuuuuuuuuuuuuuuuuuuuuuuuuuuuuuuuuu",
"uuuuuuuuuuuuuuuuuuuuuuuuuuuuuuuuuuuuu. .uuuuuuuuuuuuuuuuuuuuuuuu                         ..uuuuuuuuuuuuuuuuuuuuuuuuuuuuuuuuuuuuu",
"uuuuuuuuuuuuuuuuuuuuuuuuuuuuuuuuuuu     .uuuuuuuuuuuuuuuuuuuuuuuuuuuuu ..                  .uuuuuuuuuuuuuuuuuuuuuuuuuuuuuuuuuuuu",
"uuuuuuuuuuuuuuuuuuuuuuuuuuuuuuuuuu       uuuuuuuuuuuuuuuuuuuuuuuuuuuuuuuuuuu.                .uuuuuuuuuuuuuuuuuuuuuuuuuuuuuuuuuu",
"uuuuuuuuuuuuuuuuuuuuuuuuuuuuuuuu         .uuuuuuuuuuuuuuuuuuuuuuuuuuuuuuuuuuuuuu                uuuuuuuuuuuuuuuuuuuuuuuuuuuuuuuu",
"uuuuuuuuuuuuuuuuuuuuuuuuuuuuuuX          .uuuuuuuuuuuuuuuuuuuuuuuuuuuuuuuuuuuuuuuu..             uuuuuuuuuuuuuuuuuuuuuuuuuuuuuuu",
"uuuuuuuuuuuuuuuuuuuuuuuuuuuuu.           .uuuuuuuuuuuuuuuuuuuuuuuuuuuuuuuuuuuuuuuuuuu             .uuuuuuuuuuuuuuuuuuuuuuuuuuuuu",
"uuuuuuuuuuuuuuuuuuuuuuuuuuuu           ..uuuuuuuuuuuuuuuuuuuuuuuuuuuuuuuuuuuuuuuuuuuuuu.           .uuuuuuuuuuuuuuuuuuuuuuuuuuuu",
"uuuuuuuuuuuuuuuuuuuuuuuuuuu.           uuuuuuuuuuuuuuuuuuuuuuuuuuuuuuuuuuuuuuuuuuuuuuuuuu.           uuuuuuuuuuuuuuuuuuuuuuuuuuu",
"uuuuuuuuuuuuuuuuuuuuuuuuu.          .uuuuuuuuuuuuuuuuuuw:*+@@@@@uuuuuuuuuuuuuuuuuuuuuuuuuuX           uuuuuuuuuuuuuuuuuuuuuuuuuu",
"uuuuuuuuuuuuuuuuuuuuuuuu.          Xuuuuuuuuuuuuuuu9=@@@@@@@@@@@uuuuuuuuuuuuuuuuuuuuuuuuuuuu          .uuuuuuuuuuuuuuuuuuuuuuuuu",
"uuuuuuuuuuuuuuuuuuuuuuu.          uuuuuuuuuuuuuu8*@@@@@@@@@@@@@@uuuuuuuuuuuuuuuuuuuuuuuuuuuuu          .uuuuuuuuuuuuuuuuuuuuuuuu",
"uuuuuuuuuuuuuuuuuuuuuuuu         uuuuuuuuuuuuu,@@@@@@@@@@@@@@@@@uuuuuuuuuuuuuuuuuuuuuuuuuuuuuuu          uuuuuuuuuuuuuuuuuuuuuuu",
"uuuuuuuuuuuuuuuuuuuuuuuuX      .uuuuuuuuuuuu&@@@@@@@@@@@@@@@@@@@uuuuuuuuuuuuuuuuuuuuuuuuuuuuuuuu.        .uuuuuuuuuuuuuuuuuuuuuu",
"uuuuuuuuuuuuuuuuuuuuuuuuu.    uuuuuuuuuuuu-@@@@@@@@@@@@@@@@@@@@@uuuuuuuuuuuuuuuuuuuuuuuuuuuuuuuuu         .uuuuuuuuuuuuuuuuuuuuu",
"uuuuuuuuuuuuuuuuuuuuuuuuuu.  uuuuuuuuuuu6@@@@@@@@@@@@@@@@@@%;:57uuuuuuuuuuuuuuuuuuuuuuuuuuuuuuuuuu          uuuuuuuuuuuuuuuuuuuu",
"uuuuuuuuuuuuuuuuuuuuuuuuuuu uuuuuuuuuuu%@@@@@@@@@@@@@@$6uuuuuuuuuuuuuuuuuuuuuuuuuuuuuuuuuuuuuuuuuuu          uuuuuuuuuuuuuuuuuuu",
"uuuuuuuuuuuuuuuuuuuuuuuuuuuuuuuuuuuuu8@@@@@@@@@@@@@-yuuuuuuuuuuuuuuuuuuuuuuuuuuuuuuuuuuuuuuuuuuuuuuu         .uuuuuuuuuuuuuuuuuu",
"uuuuuuuuuuuuuuuuuuuuuuuuuuuuuuuuuuuu,@@@@@@@@@@@@wuuuuuuuuuuuuuuuuuuuuuuuuuuuuuuuuuuuuuuuuuuuuuuuuuuu         .uuuuuuuuuuuuuuuuu",
"uuuuuuuuuuuuuuuuuuuuuuuuuuuuuuuuuuu$@@@@@@@@@@%wuuuuuuuuuuuuuuuuuuuuuuuuuuuuuuuuuuuuuuuuuuuuuuuuuuuuuu         uuuuuuuuuuuuuuuuu",
"uuuuuuuuuuuuuuuuuuuuuuuuuuuuuuuuuu$@@@@@@@@@#8uuuuuuuuuuuuuuuuuuuuuuuuuuuuuuuuuuuuuuuuuuuuuuuuuuuuuuuuu.        uuuuuuuuuuuuuuuu",
"uuuuuuuuuuuuuuuuuuuuuuuuuuuuuuuuu#@@@@@@@@@:uuuuuuuuuuuuuuuuuuuuuuuuuuuuuuuuuuuuuuuuuuuuuuuuuuuuuuuuuuuu         uuuuuuuuuuuuuuu",
"uuuuuuuuuuuuuuuuuuuuuuuuuuuuuuuu#@@@@@@@@#euuuuuuuuuuuuuuuuu.. .;:48uuuuuuuuuuuuuuuuuuuuuuuuuuu Xuuuuuuuu        uuuuuuuuuuuuuuu",
"uuuuuuuuuuuuuuuuuuuuuuuuuuuuuuu$@@@@@@@@-uuuuuuuuuuuuuu. .      @@@@@@@=8uuuuuuuuuuuuuuuuuuuuu   uuuuuuuu.       .uuuuuuuuuuuuuu",
"uuuuuuuuuuuuuuuuuuuuuuuuuuuuuu*@@@@@@@@;uuuuuuuuuuuu .          @@@@@@@@@@&3uuuuuuuuuuuuuuuuu.   .uuuuuuuu        uuuuuuuuuuuuuu",
"uuuuuuuuuuuuuuuuuuuuuuuuuuuuu,@@@@@@@@:uuuuuuuuuuu.             @@@@@@@@@@@@@1uuuuuuuuuuuuuu      .uuuuuuuu       .uuuuuuuuuuuuu",
"uuuuuuuuuuuuuuuuuuuuuuuuuuuu8@@@@@@@@4uuuuuuuuuu.               @@@@@@@@@@@@@@#8uuuuuuuuuuu.       .uuuuuuuX       .uuuuuuuuuuuu",
"uuuuuuuuuuuuuuuuuuuuuuuuuuuu@@@@@@@@<uuuuuuuuuu.                @@@@@@@@@@@@@@@@*uuuuuuuuuuu        .uuuuuuu.      .uuuuuuuuuuuu",
"uuuuuuuuuuuuuuuuuuuuuuuuuuu%@@@@@@@;uuuuuuuuuu                  @@@@@@@@@@@@@@@@@+ruuuuuuuuu.       .uuuuuuuu       uuuuuuuuuuuu",
"uuuuuuuuuuuuuuuuuuuuuuuuuu6@@@@@@@&uuuuuuuuuX               .uuuuuu84$@@@@@@@@@@@@@6uuuuuuuuu.       .uuuuuuu.       uuuuuuuuuuu",
"uuuuuuuuuuuuuuuuuuuuuuuuuu@@@@@@@#uuuuuuuuu.             uuuuuuuuuuuuuu9-@@@@@@@@@@@;uuuuuuuuu        uuuuuuuu       uuuuuuuuuuu",
"uuuuuuuuuuuuuuuuuuuuuuuuu-@@@@@@@euuuuuuuu.           uuuuuuuuuuuuuuuuuuuu;@@@@@@@@@@*uuuuuuuuu       .uuuuuuu        uuuuuuuuuu",
"uuuuuuuuuuuuuuuuuuuuuuuuu@@@@@@@;uuuuuuuu           uuuuuuuuuuuuuuuuuuuuuuuu-@@@@@@@@@:uuuuuuuuu       .uuuuuuu       uuuuuuuuuu",
"uuuuuuuuuuuuuuuuuuuuuuuu&@@@@@@+uuuuuuuu.         .uuuuuuuuuuuuuuuuuuuuuuuuuuq@@@@@@@@@6uuuuuuuu        uuuuuuu.      .uuuuuuuuu",
"uuuuuuuuuuuuuuuuuuuuuuuu@@@@@@@8uuuuuuuu.        uuuuuuuuuuuuuuuuuuuuuuuuuuuuuu@@@@@@@@@ruuuuuuuu     . uuuuuuu.      .uuuuuuuuu",
"uuuuuuuuuuuuuuuuuuuuuuu-@@@@@@$uuuuuuuu        .uuuuuuuuuuuuuuuuuuuuuuuuuuuuuuuu*@@@@@@@+uuuuuuuu.   .uuuuuuuuuu       uuuuuuuuu",
"uuuuuuuuuuuuuuuuuuuuuuu@@@@@@@quuuuuuu.        uuuuuuuuuuuu8;*@@ .. uuuuuuuuuuuuu$@@@@@@@&uuuuuuuu uuuuuuuuuuuuu       .uuuuuuuu",
"uuuuuuuuuuuuuuuuuuuuuu8@@@@@@$uuuuuuuu        uuuuuuuuuuu-@@@@@@      .uuuuuuuuuuu$@@@@@@@0uuuuuuuuuuuuuuuuuuuuuu      .uuuuuuuu",
"uuuuuuuuuuuuuuuuuuuuuu*@@@@@@2uuuuuuu.       uuuuuuuuuu-@@@@@@@@        .uuuuuuuuuu@@@@@@@+uuuuuuuuuuuuuuuuuuuuuu       uuuuuuuu",
"uuuuuuuuuuuuuuuuuuuuuu@@@@@@@uuuuuuuu       .uuuuuuuu0+@@@@@@@@@          uuuuuuuuu0@@@@@@@6uuuuuuuuuuuuuuuuuuuuu       uuuuuuuu",
"uuuuuuuuuuuuuuuuuuuuuw@@@@@@>uuuuuuu.      .uuuuuuuu1@@@@@@@@@@@           .uuuuuuuu&@@@@@@@uuuuuuuuuuuuuuuuuuuuu.      .uuuuuuu",
"uuuuuuuuuuuuuuuuuuuuu;@@@@@@quuuuuuu       uuuuuuuu9@@@@@@@@@@@@            uuuuuuuuu@@@@@@@yuuuuuuuuuuuuuuuuuuuuu      .uuuuuuu",
"uuuuuuuuuuuuuuuuuuuuu@@@@@@@uuuuuuu.      .uuuuuuuu@@@@@@@@@@@%;.           .uuuuuuuu-@@@@@@=uuuuuuuuuuuuuuuuuuuuu      .uuuuuuu",
"uuuuuuuuuuuuuuuuuuuuu@@@@@@%uuuuuuu.      uuuuuuuu#@@@@@@@@*ruuuuuu..        .uuuuuuuu@@@@@@@uuuuuuuuuuuuuuuuuuuuu       uuuuuuu",
"uuuuuuuuuuuuuuuuuuuu9@@@@@@1uuuuuuu       uuuuuuu4@@@@@@@@yuuuuuuuuuu         .uuuuuuu$@@@@@@ruuuuuuuuuuuuuuuuuuuu.      uuuuuuu",
"uuuuuuuuuuuuuuuuuuuu4@@@@@@yuuuuuu.      .uuuuuuu@@@@@@@$uuuuuuuuuuuuuu        uuuuuuu7@@@@@@<uuuuuuuuuuuuuuuuuuuu.      uuuuuuu",
"uuuuuuuuuuuuuuuuuuuu-@@@@@@uuuuuuu       uuuuuuu:@@@@@@+uuuuuuuuuuuuuuuu       .uuuuuuu@@@@@@@uuuuuuuuuuuuuuuuuuuuX      Xuuuuuu",
"uuuuuuuuuuuuuuuuuuuu%@@@@@@uuuuuuu      .uuuuuuu@@@@@@@quuuuuuuuuuuuuuuu.      .uuuuuuu%@@@@@@uuuuuuuuuuuuuuuuuuuuu       uuuuuu",
"uuuuuuuuuuuuuuuuuuuu@@@@@@+uuuuuuu      .uuuuuuu@@@@@@%uuuuuuuuuuuuuuuuuu.      uuuuuuu-@@@@@@uuuuuuuuuuuuuuuuuuuuu      .uuuuuu",
"uuuuuuuuuuuuuuuuuuuu@@@@@@$uuuuuuu      .uuuuuu6@@@@@@6uuuuuuuuuuuuuuuuuu.      .uuuuuu7@@@@@@yuuuuuuuuuuuuuuuuuuuu       uuuuuu",
"uuuuuuuuuuuuuuuuuuuu@@@@@@-uuuuuu.       uuuuuu4@@@@@@uuuuuuuuuuuuuuuuuuuu      .uuuuuu0@@@@@@0uuuuuuuuuuuuuuuuuuuu      .uuuuuu",
"uuuuuuuuuuuuuuuuuuuu@@@@@@-uuuuuu       uuuuuuu-@@@@@@uuuuuuuuuuuuuuuuuuuu       uuuuuue@@@@@@8uuuuuuuuuuuuuuuuuuuu       uuuuuu",
"uuuuuuuuuuuuuuuuuuuuOOOOOOouuuuuu.      uuuuuuu6111111uuuuuuuuuuuuuuuuuuuu      .uuuuuuu111111uuuuuuuuuuuuuuuuuuuuu       uuuuuu",
"uuuuuu$@@@@@@uuuuuuu      .uuuuuu.      uuuuuuuuuuuuuuuuuuuuuuuuuuuuuuuuuu      .uuuuuuuuuuuuuuuuuuuuu       uuuuuu       uuuuuu",
"uuuuuu$@@@@@@uuuuuuu       uuuuuu       uuuuuuuuuuuuuuuuuuuuuuuuuuuuuuuuuu       uuuuuuuuuuuuuuuuuuuuu      .uuuuuu       uuuuuu",
"uuuuuu*@@@@@@uuuuuuu      .uuuuuu.       uuuuuuuuuuuuuuuuuuuuuuuuuuuuuuuuu      .uuuuuuuuuuuuuuuuuuuuu       uuuuuu      .uuuuuu",
"uuuuuu-@@@@@@uuuuuuu       uuuuuuu      .uuuuuuuuuuuuuuuuuuuuuuuuuuuuuuuu.      .uuuuuuuuuuuuuuuuuuuuu      .uuuuuu       uuuuuu",
"uuuuuu;@@@@@@uuuuuuu.      uuuuuuu      .uuuuuuuuuuuuuuuuuuuuuuuuuuuuuuuu.      uuuuuuuuuuuuuuuuuuuuuu      .uuuuuu      .uuuuuu",
"uuuuuu1@@@@@@uuuuuuu.      uuuuuuu      .uuuuuuuuuuuuuuuuuuuuuuuuuuuuuuu.      .uuuuuuuuuuuuuuuuuuuuu.      .uuuuuu       uuuuuu",
"uuuuuuw@@@@@@9uuuuuu.      uuuuuuu.      uuuuuuuuuuuuuuuuuuuuuuuuuuuuuuu       .uuuuuuuuuuuuuuuuuuuuu.      uuuuuu       Xuuuuuu",
"uuuuuuu@@@@@@<uuuuuu       .uuuuuu.      .uuuuuuuuuuuuuuuuuuuuuuuuuuuuu        uuuuuuuuuuuuuuuuuuuuuu.      uuuuuu.      uuuuuuu",
"uuuuuuu@@@@@@&uuuuuuu      .uuuuuuu       uuuuuuuuuuuuuuuuuuuuuuuuuuu         .uuuuuuuuuuuuuuuuuuuuuu      .uuuuuu.      uuuuuuu",
"uuuuuuu@@@@@@@uuuuuuu       uuuuuuu.      uuuuuuuuuuuuuuuuuuuuuuuuu..        .uuuuuuuuuuuuuuuuuuuuuu.       uuuuuu       uuuuuuu",
"uuuuuuu$@@@@@@uuuuuuu.      uuuuuuu.      .uuuuuuuuuuuuuuuuuuuuu.           .uuuuuuuuuuuuuuuuuuuuuuu.      .uuuuuu      .uuuuuuu",
"uuuuuuu:@@@@@@9uuuuuu.      .uuuuuuu       uuuuuuuuuuuuuuuuuuuuu            uuuuuuuuuuuuuuuuuuuuuuuu.      uuuuuuu      .uuuuuuu",
"uuuuuuuy@@@@@@;uuuuuuu       uuuuuuu.      .uuuuuuuuuuuuuuuuuuuu           Xuuuuuuuuuuuuuuuuuuuuuuu.       uuuuuu.      .uuuuuuu",
"uuuuuuuu@@@@@@#uuuuuuu.       uuuuuuu       .uuuuuuuuuuuuuuuuuuu          uuuuuuuuuuuuuuuuuuuuuuuuu       .uuuuuu       uuuuuuuu",
"uuuuuuuu$@@@@@@uuuuuuu       .uuuuuuu.       uuuuuuuuuuuuuuuuuuu        .uuuuuuuuuuuuuuuuuuuuuuuuuu       uuuuuuu       uuuuuuuu",
"uuuuuuuu:@@@@@@7uuuuuuu       uuuuuuuu        uuuuuuuuuuuuuuuuuu      .uuuuuuuuuuuuuuuuuuuuuuuuuuu       .uuuuuuu      .uuuuuuuu",
"uuuuuuuuy@@@@@@$uuuuuuu       .uuuuuuu.        uuuuuuuuuuuuuuuuu .. uuuuuuuuuuuuuuuuuuuuuuuuuuuuuu       .uuuuuu       .uuuuuuuu",
"uuuuuuuuu@@@@@@@uuuuuuuu       uuuuuuuu        .uuuuuuuuuuuuuuuuuuuuuuuuuuuuuuuuuuuuuuuuuuuuuuuuu.      .uuuuuuu       uuuuuuuuu",
"uuuuuuuuu:@@@@@@:uuuuuuu       .uuuuuuuu.        uuuuuuuuuuuuuuuuuuuuuuuuuuuuuuu. uuuuuuuuuuuuuuu        uuuuuu.      .uuuuuuuuu",
"uuuuuuuuuu@@@@@@@uuuuuuuu       .uuuuuuu.         .uuuuuuuuuuuuuuuuuuuuuuuuuuu.    uuuuuuuuuuuuu        uuuuuuu.       uuuuuuuuu",
"uuuuuuuuuu#@@@@@@6uuuuuuu.       uuuuuuuu           uuuuuuuuuuuuuuuuuuuuuuuuu.       uuuuuuuuuu         uuuuuuu       uuuuuuuuuu",
"uuuuuuuuuu6@@@@@@@uuuuuuuu       .uuuuuuuu.           uuuuuuuuuuuuuuuuuuuuu          Xuuuuuuuuu       .uuuuuuu        uuuuuuuuuu",
"uuuuuuuuuuu@@@@@@@2uuuuuuu         uuuuuuuu             .uuuuuuuuuuuuuuuuuu          .uuuuuuuu        uuuuuuuu       uuuuuuuuuuu",
"uuuuuuuuuuu:@@@@@@%uuuuuuuu         uuuuuuuuX               .uuuuuuuuuuuuuu.       .Xuuuuuuuu         uuuuuuu.       uuuuuuuuuuu",
"uuuuuuuuuuuu@@@@@@@7uuuuuuuX        Xuuuuuuuuu                  uuuuuuuuuuuu      .uuuuuuuuu.        uuuuuuuu       uuuuuuuuuuuu",
"uuuuuuuuuuuu,@@@@@@@uuuuuuuu.        uuuuuuuuuu.                uuuuuuuuuuuu.    .uuuuuuuuu.        uuuuuuuu.      .uuuuuuuuuuuu",
"uuuuuuuuuuuuu@@@@@@@-uuuuuuuu         uuuuuuuuuuX               uuuuuuuuuuuuu  .uuuuuuuuuu         .uuuuuuuX       .uuuuuuuuuuuu",
"uuuuuuuuuuuuu;@@@@@@@quuuuuuuu.         uuuuuuuuuu.             uuuuuuuuuuuuu  uuuuuuuuuu.        .uuuuuuuu       .uuuuuuuuuuuuu",
"uuuuuuuuuuuuuu#@@@@@@%uuuuuuuuu.         uuuuuuuuuuu .          uuuuuuuuuuuuuuuuuuuuuuuu         .uuuuuuuu        uuuuuuuuuuuuuu",
"uuuuuuuuuuuuuu8@@@@@@@*uuuuuuuuu         .uuuuuuuuuuuuu  .      uuuuuuuuuuuuuuuuuuuuuuu          uuuuuuuu.       .uuuuuuuuuuuuuu",
"uuuuuuuuuuuuuuu&@@@@@@@4uuuuuuuu.           uuuuuuuuuuuuuuuu.. .uuuuuuuuuuuuuuuuuuuuu          .uuuuuuuuu        uuuuuuuuuuuuuuu",
"uuuuuuuuuuuuuuuu@@@@@@@@uuuuuuuuuu          .uuuuuuuuuuuuuuuuuuuuuuuuuuuuuuuuuuuuuu           .uuuuuuuuu         uuuuuuuuuuuuuuu",
"uuuuuuuuuuuuuuuu6@@@@@@@#uuuuuuuuuu.           uuuuuuuuuuuuuuuuuuuuuuuuuuuuuuuuuuu            uuuuuuuuu.        uuuuuuuuuuuuuuuu",
"uuuuuuuuuuuuuuuuu=@@@@@@@@uuuuuuuuuu            .uuuuuuuuuuuuuuuuuuuuuuuuuuuuuuu.           .uuuuuuuuu         uuuuuuuuuuuuuuuuu",
"uuuuuuuuuuuuuuuuuu$@@@@@@@%uuuuuuuuuu             . uuuuuuuuuuuuuuuuuuuuuuuuu.             .uuuuuuuuu         .uuuuuuuuuuuuuuuuu",
"uuuuuuuuuuuuuuuuuuu@@@@@@@@$uuuuuuuuuu               . uuuuuuuuuuuuuuuuuuu .              uuuuuuuuuu         .uuuuuuuuuuuuuuuuuu",
"uuuuuuuuuuuuuuuuuuu9@@@@@@@@*uuuuuuuuuuu                  ..uuuuuuuu...                 .uuuuuuuuuu          uuuuuuuuuuuuuuuuuuu",
"uuuuuuuuuuuuuuuuuuuu4@@@@@@@@$uuuuuuuuuuuu                                            .uuuuuuuuuuu          uuuuuuuuuuuuuuuuuuuu",
"uuuuuuuuuuuuuuuuuuuuu:@@@@@@@@@uuuuuuuuuuuu..                                       .uuuuuuuuuuuu         .uuuuuuuuuuuuuuuuuuuuu",
"uuuuuuuuuuuuuuuuuuuuuu;@@@@@@@@@9uuuuuuuuuuuu..                                    uuuuuuuuuuuuu.        .uuuuuuuuuuuuuuuuuuuuuu",
"uuuuuuuuuuuuuuuuuuuuuuu-@@@@@@@@@=uuuuuuuuuuuuuu.                              . uuuuuuuuuuuuuu          uuuuuuuuuuuuuuuuuuuuuuu",
"uuuuuuuuuuuuuuuuuuuuuuuu;@@@@@@@@@@uuuuuuuuuuuuuuu                          ..uuuuuuuuuuuuuuu.         .uuuuuuuuuuuuuuuuuuuuuuuu",
"uuuuuuuuuuuuuuuuuuuuuuuuu4@@@@@@@@@@:uuuuuuuuuuuuuuuuu                  . .uuuuuuuuuuuuuuuuu          .uuuuuuuuuuuuuuuuuuuuuuuuu",
"uuuuuuuuuuuuuuuuuuuuuuuuuu9@@@@@@@@@@@quuuuuuuuuuuuuuuuuuuuu .. ... .uuuuuuuuuuuuuuuuuuuuuX           uuuuuuuuuuuuuuuuuuuuuuuuuu",
"uuuuuuuuuuuuuuuuuuuuuuuuuuut@@@@@@@@@@@*uuuuuuuuuuuuuuuuuuuuuuuuuuuuuuuuuuuuuuuuuuuuuuuuu.           uuuuuuuuuuuuuuuuuuuuuuuuuuu",
"uuuuuuuuuuuuuuuuuuuuuuuuuuuuu&@@@@@@@@@@@%yuuuuuuuuuuuuuuuuuuuuuuuuuuuuuuuuuuuuuuuuuuuu.           .uuuuuuuuuuuuuuuuuuuuuuuuuuuu",
"uuuuuuuuuuuuuuuuuuuuuuuuuuuuuu4@@@@@@@@@@@@@quuuuuuuuuuuuuuuuuuuuuuuuuuuuuuuuuuuuuuuu             .uuuuuuuuuuuuuuuuuuuuuuuuuuuuu",
"uuuuuuuuuuuuuuuuuuuuuuuuuuuuuuuu$@@@@@@@@@@@@@;yuuuuuuuuuuuuuuuuuuuuuuuuuuuuuuuuuu..             uuuuuuuuuuuuuuuuuuuuuuuuuuuuuuu",
"uuuuuuuuuuuuuuuuuuuuuuuuuuuuuuuuu7@@@@@@@@@@@@@@+,3uuuuuuuuuuuuuuuuuuuuuuuuuuuuu                uuuuuuuuuuuuuuuuuuuuuuuuuuuuuuuu",
"uuuuuuuuuuuuuuuuuuuuuuuuuuuuuuuuuuu&@@@@@@@@@@@@@@@@@;9ruuuuuuuuuuuuuuuuuuuu.                .uuuuuuuuuuuuuuuuuuuuuuuuuuuuuuuuuu",
"uuuuuuuuuuuuuuuuuuuuuuuuuuuuuuuuuuuur*@@@@@@@@@@@@@@@@@@@@%$--:1uuuuuuX..                  .uuuuuuuuuuuuuuuuuuuuuuuuuuuuuuuuuuuu",
"uuuuuuuuuuuuuuuuuuuuuuuuuuuuuuuuuuuuuuu*@@@@@@@@@@@@@@@@@@@@@@@@                         ..uuuuuuuuuuuuuuuuuuuuuuuuuuuuuuuuuuuuu",
"uuuuuuuuuuuuuuuuuuuuuuuuuuuuuuuuuuuuuuuuu-@@@@@@@@@@@@@@@@@@@@@@                        uuuuuuuuuuuuuuuuuuuuuuuuuuuuuuuuuuuuuuuu",
"uuuuuuuuuuuuuuuuuuuuuuuuuuuuuuuuuuuuuuuuuuu8%@@@@@@@@@@@@@@@@@@@                      uuuuuuuuuuuuuuuuuuuuuuuuuuuuuuuuuuuuuuuuuu",
"uuuuuuuuuuuuuuuuuuuuuuuuuuuuuuuuuuuuuuuuuuuuuu4%@@@@@@@@@@@@@@@@                  ..uuuuuuuuuuuuuuuuuuuuuuuuuuuuuuuuuuuuuuuuuuuu",
"uuuuuuuuuuuuuuuuuuuuuuuuuuuuuuuuuuuuuuuuuuuuuuuuu0:@@@@@@@@@@@@@               ..uuuuuuuuuuuuuuuuuuuuuuuuuuuuuuuuuuuuuuuuuuuuuuu",
"uuuuuuuuuuuuuuuuuuuuuuuuuuuuuuuuuuuuuuuuuuuuuuuuuuuuuu04;$@@@@@@          ...uuuuuuuuuuuuuuuuuuuuuuuuuuuuuuuuuuuuuuuuuuuuuuuuuuu",
"uuuuuuuuuuuuuuuuuuuuuuuuuuuuuuuuuuuuuuuuuuuuuuuuuuuuuuuuuuuuuuuu  . . Xuuuuuuuuuuuuuuuuuuuuuuuuuuuuuuuuuuuuuuuuuuuuuuuuuuuuuuuuu",
"uuuuuuuuuuuuuuuuuuuuuuuuuuuuuuuuuuuuuuuuuuuuuuuuuuuuuuuuuuuuuuuuuuuuuuuuuuuuuuuuuuuuuuuuuuuuuuuuuuuuuuuuuuuuuuuuuuuuuuuuuuuuuuuu",
"uuuuuuuuuuuuuuuuuuuuuuuuuuuuuuuuuuuuuuuuuuuuuuuuuuuuuuuuuuuuuuuuuuuuuuuuuuuuuuuuuuuuuuuuuuuuuuuuuuuuuuuuuuuuuuuuuuuuuuuuuuuuuuuu",
"uuuuuuuuuuuuuuuuuuuuuuuuuuuuuuuuuuuuuuuuuuuuuuuuuuuuuuuuuuuuuuuuuuuuuuuuuuuuuuuuuuuuuuuuuuuuuuuuuuuuuuuuuuuuuuuuuuuuuuuuuuuuuuuu",
"uuuuuuuuuuuuuuuuuuuuuuuuuuuuuuuuuuuuuuuuuuuuuuuuuuuuuuuuuuuuuuuuuuuuuuuuuuuuuuuuuuuuuuuuuuuuuuuuuuuuuuuuuuuuuuuuuuuuuuuuuuuuuuuu",
"uuuuuuuuuuuuuuuuuuuuuuuuuuuuuuuuuuuuuuuuuuuuuuuuuuuuuuuuuuuuuuuuuuuuuuuuuuuuuuuuuuuuuuuuuuuuuuuuuuuuuuuuuuuuuuuuuuuuuuuuuuuuuuuu",
"uuuuuuuuuuuuuuuuuuuuuuuuuuuuuuuuuuuuuuuuuuuuuuuuuuuuuuuuuuuuuuuuuuuuuuuuuuuuuuuuuuuuuuuuuuuuuuuuuuuuuuuuuuuuuuuuuuuuuuuuuuuuuuuu"
};
