/* XPM */
static char *bitcoin16[] = {
/* columns rows colors chars-per-pixel */
"16 16 22 1 ",
"  c #FFBC00",
". c #FFBD00",
"X c #FFBE00",
"o c #FFEAB4",
"O c #FFEAB5",
"+ c #FFEBB5",
"@ c #FFEBB6",
"# c #FFEBB7",
"$ c #FFECB5",
"% c #FFECB6",
"& c #FFEBB9",
"* c #FFEDB8",
"= c #FFECB9",
"- c #FFEDB9",
"; c #FFECBA",
": c #FFEDBA",
"> c #FFECBB",
", c #FFEDBB",
"< c #FFEDBC",
"1 c #FFEDBD",
"2 c #FFEEBC",
"3 c None",
/* pixels */
"3333333333333333",
"33333333.. 33333",
"333..332333 .333",
"33333+&33333X.33",
"3333o33.#,333 33",
"333+3..33>%3.3 3",
"333-3X1o 32<33.3",
"33,3.3o33.3#33.3",
"3#33.3333.333 .3",
"3$3.3X33 333X3.3",
"3@3 3..33333.3 3",
"33O3 33 333 3 33",
"33:=3....  3X.33",
"333;+333333 .333",
"33333*o#.. 33333",
"3333333333333333"
};
