/* XPM */
static char *bitcoin32[] = {
/* columns rows colors chars-per-pixel */
"32 32 29 1 ",
"  c #FFBC00",
". c #FFBD00",
"X c #FFBE00",
"o c #FFEAB1",
"O c #FFEAB2",
"+ c #FFEBB2",
"@ c #FFEAB3",
"# c #FFEBB3",
"$ c #FFEAB4",
"% c #FFEBB4",
"& c #FFEAB5",
"* c #FFEBB5",
"= c #FFEBB6",
"- c #FFEBB7",
"; c #FFECB5",
": c #FFECB7",
"> c #FFEBB9",
", c #FFECB8",
"< c #FFECB9",
"1 c #FFEDB9",
"2 c #FFECBA",
"3 c #FFEDBA",
"4 c #FFECBB",
"5 c #FFEDBB",
"6 c #FFEEBB",
"7 c #FFEDBC",
"8 c #FFEDBD",
"9 c #FFEEBC",
"0 c None",
/* pixels */
"00000000000000000000000000000000",
"00000000000000000000000000000000",
"0000000000000000    .00000000000",
"000000000.00000000X.   000000000",
"0000000. .00000000000.  .0000000",
"000000. .0005=OO0000000. .000000",
"000000..00>+OO*-00000000. .00000",
"000000000%O;0000000000000. .0000",
"00000000OO5000X.1300000000. 0000",
"0000000%O000.   OOO*000 .00  000",
"000000>O500  .0000,Oo000 .0. 000",
"000000+*00..00000000Oo00..00 .00",
"000007O00  000@O .000O=00000. 00",
"00000=+00 .00O#5.. 00,O00000X 00",
"00000O$00 00@@0000 .00O400000 00",
"00000#=0. 00%20000. 00%200000 00",
"08O00..0. 00000000. 00000. 00 00",
"00O00. 00 00000000 .00000  00 00",
"00O60. 00 .00000.. 000000. 0X 00",
"00@*00 00  00000 .0000000  0. 00",
"00,O00..00..000000000000 .00 .00",
"000O<00 .00  .00000 .000 .0. 000",
"000&o00. .00.   000.000. 00  000",
"0000O=00  .000X.00000. .00. 0000",
"00003O,00.  .0000000  .00. .0000",
"00000:O-000    ..   .000  .00000",
"000000,O;0000. .. .0000. .000000",
"00000005OO-0000000000.  .0000000",
"000000000:OO@-2900X.   000000000",
"000000000006%OOO    .00000000000",
"00000000000000000000000000000000",
"00000000000000000000000000000000"
};
