<?xml version="1.0" encoding="UTF-8"?>
<svg width="907px" height="907px" viewBox="0 0 907 907" version="1.1" xmlns="http://www.w3.org/2000/svg" xmlns:xlink="http://www.w3.org/1999/xlink">
    <!-- Generator: Sketch 52.2 (67145) - http://www.bohemiancoding.com/sketch -->
    <title>Group 2</title>
    <desc>Created with Sketch.</desc>
    <g id="Page-1" stroke="none" stroke-width="1" fill="none" fill-rule="evenodd">
        <g id="Group-2" transform="translate(0.944828, 0.944828)" fill="#FFBC00">
            <path d="M452.855172,905.710345 C702.559514,905.710345 905.710345,702.559514 905.710345,452.855172 C905.710345,203.15083 702.559514,0 452.855172,0 L452.855172,55.1305887 C672.163875,55.1305887 850.579756,233.555527 850.579756,452.855172 C850.579756,672.163875 672.163875,850.579756 452.855172,850.579756 L452.855172,905.710345 Z" id="Fill-1"></path>
            <path d="M162.304148,450.325255 C162.304148,609.864301 293.784299,739.655577 455.399303,739.655577 C617.014306,739.655577 748.494457,609.864301 748.494457,450.325255 L803.945138,450.325255 C803.945138,640.043718 647.586425,794.39399 455.399303,794.39399 C263.21218,794.39399 106.853468,640.043718 106.853468,450.325255 L162.304148,450.325255 Z" id="Fill-7"></path>
            <path d="M452.855172,267.673382 C351.248056,267.673382 268.58632,350.744656 268.58632,452.855172 C268.58632,554.965689 351.248056,638.036963 452.855172,638.036963 L452.855172,693.197303 C320.985944,693.197303 213.706935,585.377732 213.706935,452.855172 C213.706935,320.332613 320.985944,212.513042 452.855172,212.513042" id="Fill-11"></path>
            <path d="M452.855172,318.769563 C525.79941,318.769563 585.149942,378.916471 585.149942,452.859708 C585.149942,526.793873 525.79941,586.940782 452.855172,586.940782 L452.855172,531.737331 C495.76618,531.737331 530.676678,496.353061 530.676678,452.859708 C530.676678,409.366354 495.76618,373.982085 452.855172,373.982085" id="Fill-15"></path>
            <path d="M625.856025,625.622331 L587.205402,587.420085 C587.367044,587.260318 587.510727,587.10055 587.67237,586.940782 C572.657537,601.923447 554.751091,614.553976 534.267338,623.891513 L557.157775,672.957966 C583.460673,660.966508 606.494792,644.794461 625.856025,625.622331" id="Fill-19"></path>
            <path d="M262.025622,40.4786746 C212.351225,63.5812262 168.846779,94.7415413 132.294769,131.700179 L169.791159,172.034367 C202.151919,139.022944 240.754583,111.192808 284.94258,90.6400671 L262.025622,40.4786746 Z" id="Fill-21"></path>
            <path d="M768.327315,306.112714 C751.097735,268.336591 727.853723,235.253431 700.293471,207.453207 L661.473847,245.202514 C684.974358,268.729906 704.786605,296.789359 719.442362,328.889231 L768.327315,306.112714 Z" id="Fill-23"></path>
            <path d="M452.855172,318.769563 C378.512253,318.769563 318.016273,378.914437 318.016273,452.855172 L373.540856,452.855172 C373.540856,409.36329 409.115995,373.980217 452.855172,373.980217 L452.855172,318.769563 Z" id="Fill-17-Copy" fill-opacity="0.3"></path>
            <path d="M55.1396458,455.38509 L0,455.38509 C0,703.694435 203.15083,905.710345 452.855172,905.710345 L452.855172,850.887748 C233.555527,850.887748 55.1396458,673.468604 55.1396458,455.38509" id="Fill-4-Copy" fill-opacity="0.3"></path>
            <path d="M452.855172,160.994933 L452.855172,106.256521 C262.070876,106.256521 106.853468,260.606793 106.853468,450.325255 L161.899399,450.325255 C161.899399,290.78621 292.428883,160.994933 452.855172,160.994933" id="Fill-9-Copy" fill-opacity="0.3"></path>
            <path d="M452.855172,212.513042 L452.855172,267.675462 C555.543216,267.675462 639.093445,350.749868 639.093445,452.855172 L694.54754,452.855172 C694.54754,320.327616 586.127265,212.513042 452.855172,212.513042" id="Fill-13-Copy" fill-opacity="0.3"></path>
        </g>
    </g>
</svg>